# xmcd
# Copyright (C) 1995-1998 Ti Kan
#
# Track frame offsets:
#       150
#       5100
#       21077
#       32922
#       41622
#       60312
#       72515
#       87585
#       102555
#       108812
#       127785
#       138215
#       148345
#       156157
#       175645
#
# Disc length: 2521 seconds
#
# Revision: 0
# Processed by: cddbd v1.5.2PL0 Copyright (c) Steve Scherf et al.
# Submitted via: CD-Import v1.0
#
DISCID=cb09d70f
DTITLE=1 - Ohrewürm 1
DYEAR=1900
DGENRE=
TTITLE0=Papagei Und Mamagei
TTITLE1=Bravo Hugo
TTITLE2=Ohni Znacht Is Bett
TTITLE3=Zügle
TTITLE4=D' Mejgja
TTITLE5=Nüün Elefante
TTITLE6=Guet Nacht
TTITLE7=Zoowärtermorgelied
TTITLE8=Zig-Zag
TTITLE9=Hilli Billi
TTITLE10=Wer Chochet Hüt?
TTITLE11=Wääk! Chuttle!
TTITLE12=Einegeligi Riisnegeli
TTITLE13=Land Vo De Träum
TTITLE14=Alles In Einen Topf!
EXTD=
EXTT0=
EXTT1=
EXTT2=
EXTT3=
EXTT4=
EXTT5=
EXTT6=
EXTT7=
EXTT8=
EXTT9=
EXTT10=
EXTT11=
EXTT12=
EXTT13=
EXTT14=
PLAYORDER=
